HIERARCHY
ROOT Hips
{
  OFFSET 90.7885 88.945 -76.2838
  CHANNELS 6 Xposition Yposition Zposition Zrotation Xrotation Yrotation
  JOINT LeftUpLeg
  {
    OFFSET 8.64259 1.95398 -2.38835
    CHANNELS 3 Zrotation Xrotation Yrotation
    JOINT LeftLeg
    {
      OFFSET 43.7702 0 0
      CHANNELS 3 Zrotation Xrotation Yrotation
      JOINT LeftFoot
      {
        OFFSET 40.6238 0 0
        CHANNELS 3 Zrotation Xrotation Yrotation
        JOINT LeftToeBase
        {
          OFFSET 12.7242 0 0
          CHANNELS 3 Zrotation Xrotation Yrotation
          End Site
          {
            OFFSET 0 0 0
          }
        }
      }
    }
  }
  JOINT RightUpLeg
  {
    OFFSET -8.2249 1.95398 -2.59336
    CHANNELS 3 Zrotation Xrotation Yrotation
    JOINT RightLeg
    {
      OFFSET 43.5653 0 0
      CHANNELS 3 Zrotation Xrotation Yrotation
      JOINT RightFoot
      {
        OFFSET 40.6238 0 0
        CHANNELS 3 Zrotation Xrotation Yrotation
        JOINT RightToeBase
        {
          OFFSET 12.7242 0 0
          CHANNELS 3 Zrotation Xrotation Yrotation
          End Site
          {
            OFFSET 0 0 0
          }
        }
      }
    }
  }
  JOINT Spine
  {
    OFFSET 0.165834 0.87714 6.61349
    CHANNELS 3 Zrotation Xrotation Yrotation
    JOINT Spine1
    {
      OFFSET 7.38963 1.71661e-005 0
      CHANNELS 3 Zrotation Xrotation Yrotation
      JOINT Spine2
      {
        OFFSET 11.9445 1.14441e-005 0
        CHANNELS 3 Zrotation Xrotation Yrotation
        JOINT Spine3
        {
          OFFSET 14.7254 4.19617e-005 0
          CHANNELS 3 Zrotation Xrotation Yrotation
          JOINT Spine4
          {
            OFFSET 10.9679 0 0
            CHANNELS 3 Zrotation Xrotation Yrotation
            JOINT RightShoulder
            {
              OFFSET 2.46616 -1.6653 3.69651
              CHANNELS 3 Zrotation Xrotation Yrotation
              JOINT RightArm
              {
                OFFSET 13.0012 0 0
                CHANNELS 3 Zrotation Xrotation Yrotation
                JOINT RightForeArm
                {
                  OFFSET 28.7848 1.52588e-005 0
                  CHANNELS 3 Zrotation Xrotation Yrotation
                  JOINT RightHand
                  {
                    OFFSET 26.5688 1.52588e-005 0
                    CHANNELS 3 Zrotation Xrotation Yrotation
                    End Site
                    {
                      OFFSET 0 0 0
                    }
                  }
                }
              }
            }
            JOINT LeftShoulder
            {
              OFFSET 2.38034 -1.29275 -3.7523
              CHANNELS 3 Zrotation Xrotation Yrotation
              JOINT LeftArm
              {
                OFFSET 16.3182 6.10352e-005 0
                CHANNELS 3 Zrotation Xrotation Yrotation
                JOINT LeftForeArm
                {
                  OFFSET 27.0901 0 0
                  CHANNELS 3 Zrotation Xrotation Yrotation
                  JOINT LeftHand
                  {
                    OFFSET 24.5451 1.52588e-005 0
                    CHANNELS 3 Zrotation Xrotation Yrotation
                    End Site
                    {
                      OFFSET 0 0 0
                    }
                  }
                }
              }
            }
            JOINT Neck
            {
              OFFSET 5.0226 -0.0266342 0
              CHANNELS 3 Zrotation Xrotation Yrotation
              JOINT Head
              {
                OFFSET 6.69363 2.86102e-005 0
                CHANNELS 3 Zrotation Xrotation Yrotation
                End Site
                {
                  OFFSET 0 0 0
                }
              }
            }
          }
        }
      }
    }
  }
}
MOTION
Frames:	14
Frame Time:	0.0416667
37.0762 30.299 34.2046 -3.04264 -15.2831 -1.06997 -176.345 5.59552 92.0929 -27.1163 28.6529 0.975803 87.0698 13.6052 4.87787 45.8957 20.9495 -43.8152 172.561 -4.24189 89.6854 -8.96605 -20.1591 -1.7905 95.6151 -17.592 0.924529 42.4291 -1.88452 1.87483 0.827341 7.58301 -90.18 11.7127 1.56113 -0.523725 0.0425921 1.53656 -0.591947 -22.5001 1.64633 -0.0302158 -2.48742 1.64634 -0.030214 96.6451 -11.5961 -98.1269 3.43482 -12.1251 -15.7618 -34.2845 -7.12936 -74.6296 -64.2207 -10.8738 10.1806 -84.084 -28.7675 84.4859 19.4164 32.4789 -41.8539 38.5954 53.0135 -55.7362 -23.563 17.5755 -83.7796 27.905 -0.634174 -1.1276 -2.21023 -0.180496 1.66808 
37.1437 26.0621 34.9204 -1.87211 -14.9762 -1.11079 -176.095 3.61856 92.2953 -28.2365 33.2332 1.58068 88.4833 14.9126 5.7769 45.9166 20.9263 -43.8461 173.871 -6.8485 89.8301 -9.46296 -18.3394 -3.75152 98.8887 -20.1079 -0.697677 39.8752 -3.08159 6.39492 0.757245 7.37331 -90.1585 12.131 1.43034 -0.474322 0.460731 1.40809 -0.536825 -22.0807 1.50676 -0.02243 -2.06806 1.50676 -0.0224126 97.218 -12.3257 -96.2544 5.47834 -15.3508 -11.4735 -35.4348 -0.193559 -81.0503 -78.7446 -13.9653 10.4542 -83.7467 -28.9397 85.1872 15.5868 34.8372 -35.3476 48.4694 49.8404 -64.6915 -24.5731 18.2991 -83.4037 34.766 -1.2291 -1.76848 -3.98746 -0.433997 2.76484 
37.153 22.6311 35.9749 -3.65087 -15.2255 -1.16656 -174.817 2.04559 93.3453 -30.0988 35.7765 0.376757 87.2388 15.238 7.7197 39.8429 26.1466 -46.1028 174.065 -9.25911 89.6141 -9.62238 -18.5551 -4.05196 99.1296 -19.5862 1.2179 41.3238 -3.04658 6.11404 0.862815 7.20521 -90.2644 12.4692 1.58853 -0.711004 0.798967 1.5557 -0.780244 -21.7437 1.72875 -0.200579 -1.7311 1.72876 -0.200583 97.0842 -12.3932 -96.6093 6.15931 -19.4297 -6.88071 -38.2 3.66768 -84.8217 -75.2175 -14.1733 11.8687 -83.8831 -31.2264 85.3306 14.7004 39.8576 -26.7719 59.1964 43.6578 -74.2316 -24.1257 18.6945 -85.5563 40.1818 -0.762114 -1.62701 -6.73845 -0.0162637 2.2783 
37.2423 19.813 36.9149 -3.49142 -15.4866 -1.20687 -174.691 -0.235968 93.2224 -30.0837 36.4925 0.638706 87.3905 15.7449 9.41325 25.6263 36.9107 -46.2203 174.028 -11.4453 89.0192 -9.86393 -19.9214 -4.61753 99.0136 -19.6124 1.0599 39.9008 -2.60991 4.88728 0.782852 7.13689 -90.2524 12.605 1.43478 -0.671887 0.934611 1.40382 -0.734398 -21.6066 1.57037 -0.209526 -1.59405 1.57037 -0.209521 97.5254 -11.737 -95.5675 7.46637 -25.353 -4.45351 -47.7114 6.929 -85.2057 -55.1444 -10.4438 11.6272 -83.802 -30.9741 85.444 10.8993 43.3086 -19.3796 55.4505 35.8775 -72.0765 -27.946 19.3934 -78.6757 45.1958 -1.08955 -1.82038 -8.79581 -0.106535 1.11821 
37.1941 17.8785 37.8111 -3.02672 -14.6983 -0.495938 -174.523 -1.25115 93.6811 -29.0586 34.4782 0.959086 88.7378 15.2941 6.32485 30.1252 29.7873 -41.1451 173.821 -12.064 89.1859 -9.86134 -21.2777 -4.231 97.1858 -18.7456 0.598913 37.9833 -3.03135 6.38587 0.768692 6.97445 -90.2789 12.9304 1.39246 -0.726171 1.25993 1.35916 -0.786757 -21.2809 1.54631 -0.274016 -1.26822 1.54632 -0.274027 97.0382 -12.2924 -96.762 11.1067 -27.6562 1.56005 -45.7028 14.0162 -85.4755 -73.9386 -13.5866 10.6931 -83.5775 -31.126 85.8973 6.11229 42.8548 -13.8263 62.1855 34.7746 -77.2038 -28.248 19.8476 -79.1764 48.7925 -1.8481 -2.98322 -9.9796 -0.173757 2.17893 
37.0864 16.5263 38.6553 -2.78556 -14.1727 -0.50991 -174.647 -1.40963 93.5132 -29.4127 35.2748 1.36368 87.234 14.7648 7.18645 34.0791 25.2369 -39.3881 173.491 -12.2985 88.6796 -10.002 -23.116 -4.26159 97.0636 -18.7878 0.0973482 36.0706 -2.91337 6.27333 0.745812 6.84859 -90.243 13.1814 1.36313 -0.65598 1.51094 1.33295 -0.715333 -21.0297 1.49726 -0.215871 -1.01708 1.49725 -0.215891 96.706 -13.2461 -97.3777 13.7874 -30.2757 5.80625 -47.7799 15.1185 -86.1126 -76.9041 -15.6083 12.8067 -84.0837 -32.4294 85.1568 2.5349 42.0289 -7.48311 64.9287 32.1033 -79.4322 -29.6492 20.4211 -77.7783 49.8328 -1.92226 -2.36244 -10.6774 -0.530858 1.5058 
36.8961 15.4644 39.2237 -2.96326 -13.6334 -0.346239 -174.591 -2.02818 93.7095 -28.3682 31.6241 1.06029 88.2133 13.9077 3.07617 17.4677 38.1936 -41.1849 173.631 -12.5284 88.9598 -10.0797 -23.5818 -4.39594 95.6025 -18.1149 -0.358442 35.0259 -4.1395 9.81192 0.755195 6.77454 -90.2213 13.3294 1.3916 -0.618872 1.65903 1.36301 -0.679533 -20.8819 1.51324 -0.171935 -0.869272 1.51324 -0.171942 97.5091 -11.6006 -95.6525 18.2377 -33.6618 6.23624 -52.2358 14.6477 -85.7366 -71.7245 -15.7561 14.63 -83.6626 -31.0713 85.7256 -2.89733 40.2484 -3.43717 67.0714 31.4084 -80.9336 -30.0411 20.0664 -75.9958 50.4649 -2.20352 -2.55044 -10.3237 -0.680665 1.73905 
36.7349 14.506 39.6429 -3.27734 -13.1676 -0.202304 -174.573 -2.46175 93.5138 -27.9383 29.5614 0.783849 87.4026 13.6802 4.28692 28.2358 24.3766 -33.9276 173.831 -12.8165 89.1391 -10.0895 -23.351 -4.48376 95.8737 -17.681 1.02738 33.6491 -3.4838 7.9847 0.778627 6.71861 -90.2641 13.4419 1.41686 -0.710165 1.7715 1.38424 -0.771836 -20.7695 1.56477 -0.251409 -0.756902 1.56477 -0.251412 97.0545 -12.7796 -96.5665 20.141 -32.6976 9.65867 -52.9564 18.216 -86.6768 -72.2137 -15.1512 13.4952 -84.1635 -31.242 84.7936 -6.98718 38.286 1.75368 72.8439 29.6377 -84.7883 -29.9757 20.61 -77.6108 51.1996 -1.75417 -2.3915 -10.9024 -0.330394 1.55583 
36.6853 13.3672 39.9688 -2.49007 -12.9316 -0.0647055 -175.1 -3.22021 92.7991 -27.9698 28.726 1.4582 86.7177 13.6965 6.01114 22.6429 25.4375 -31.0681 173.537 -13.4067 89.0683 -10.0368 -23.3122 -4.33484 95.7174 -17.6966 0.720511 33.3095 -3.84301 9.0225 0.712066 6.68395 -90.2813 13.5105 1.2762 -0.727766 1.83994 1.24293 -0.783236 -20.6998 1.43591 -0.31051 -0.687142 1.43591 -0.310498 97.3592 -12.2156 -95.8919 22.5217 -32.6913 11.3795 -56.2298 22.3432 -84.5022 -69.8648 -14.6923 13.534 -83.9902 -32.0351 85.2639 -7.52484 39.2624 4.52641 74.2184 26.3208 -85.4298 -30.4834 21.1494 -78.0268 51.8022 -1.63243 -2.0984 -11.1892 -0.377652 1.47871 
36.5347 12.1316 40.1788 -2.16706 -12.9368 -0.102914 -175.209 -4.23759 92.671 -27.6073 26.8297 1.61575 87.3416 13.3993 4.13317 16.3698 25.0561 -26.5486 173.656 -14.1647 89.0806 -10.1221 -23.7686 -4.48452 93.6839 -16.7733 0.451364 36.8484 -2.99044 6.42063 0.71131 6.64846 -90.3357 13.5822 1.24794 -0.83448 1.91152 1.21001 -0.888589 -20.6277 1.44103 -0.420786 -0.615092 1.44104 -0.420767 96.9947 -13.457 -96.5142 22.1009 -33.4274 14.5322 -59.4543 20.8227 -86.6676 -65.952 -17.8968 20.2569 -84.2898 -30.6439 84.4414 -11.486 39.2257 7.37618 73.1718 24.5077 -84.8576 -31.3791 21.1154 -76.1381 51.5527 -1.01556 -1.08769 -10.9502 -0.350531 0.724718 
36.487 10.9881 40.2838 -1.89509 -13.2474 -0.130333 -174.951 -5.33613 92.7645 -27.393 26.4559 1.3608 87.9646 13.4676 3.29367 17.6804 25.0472 -27.3099 173.598 -15.342 89.0375 -10.2311 -24.406 -4.66964 93.7584 -17.4641 -1.29266 35.8773 -3.12644 6.90361 0.720391 6.6503 -90.3336 13.5785 1.26702 -0.83253 1.90785 1.22915 -0.887506 -20.6315 1.45864 -0.413196 -0.618901 1.45864 -0.413202 96.8565 -13.9544 -96.7356 22.3925 -32.1648 16.258 -58.5802 23.879 -87.6332 -71.7546 -16.3582 15.1013 -84.7637 -30.3747 83.4742 -12.6079 41.0813 10.2075 71.11 21.0313 -83.4494 -32.5521 21.4691 -74.8083 51.2581 -1.50307 -1.73669 -10.2392 -0.49473 1.72417 
36.4901 10.2625 40.3196 -0.842034 -13.6067 -0.0578239 -175.032 -5.91726 92.7294 -28.3128 25.7237 1.67954 89.1693 13.6664 2.08852 23.3998 23.205 -28.7858 173.28 -16.274 88.9436 -10.0558 -23.3141 -4.38454 94.1742 -17.5757 -0.798754 36.6231 -2.97623 6.39158 0.59982 6.63563 -90.3367 13.6064 1.02618 -0.808211 1.9356 0.989617 -0.85259 -20.602 1.22163 -0.462403 -0.589361 1.22163 -0.462408 96.6943 -13.4129 -97.3532 23.5869 -32.2193 17.7251 -58.5586 24.0585 -88.3642 -71.3583 -16.1416 14.9344 -85.0722 -31.3726 83.0843 -12.8185 42.4452 12.5071 69.3592 18.0176 -82.5043 -33.9651 22.0239 -73.6243 50.6557 -1.07354 -0.73736 -9.83701 -0.577599 0.212151 
36.4987 10.0292 40.2685 -0.0401719 -13.8229 -0.0164411 -175.064 -6.15093 92.8436 -28.4515 26.6865 1.99668 89.3819 13.6726 1.57459 21.3904 23.9561 -28.4045 172.973 -16.8039 88.7033 -10.0042 -23.1734 -4.25379 95.0623 -17.8492 -0.354307 34.3299 -3.10425 6.93216 0.484761 6.6401 -90.2801 13.5961 0.825568 -0.66835 1.9252 0.795355 -0.704048 -20.6114 0.988266 -0.389327 -0.59882 0.988262 -0.389324 96.3729 -14.0371 -98.0175 23.7551 -31.93 18.2428 -58.7079 24.3696 -88.4578 -72.783 -16.6861 15.1549 -84.789 -29.9539 83.3368 -15.0908 42.4452 13.3397 68.8388 16.6401 -82.3466 -35.2489 22.6273 -72.854 50.4838 -1.72883 -2.19467 -9.29048 -0.394336 1.20226 
36.4352 9.9969 40.2428 0.326205 -13.8285 -0.102371 -175.02 -6.33195 93.0142 -28.314 29.3233 2.34756 89.1102 14.1004 3.10641 17.895 25.2159 -27.6525 172.91 -16.6934 88.3449 -10.0838 -23.4374 -4.44409 94.9736 -17.2588 0.974846 35.1539 -2.89923 6.32286 0.467273 6.64262 -90.2643 13.5909 0.798543 -0.633211 1.92005 0.769907 -0.667738 -20.6166 0.951928 -0.363912 -0.603928 0.951928 -0.363923 95.7428 -15.2628 -99.2649 23.1208 -30.5687 19.6886 -58.0414 24.3138 -89.8975 -72.1377 -16.0528 14.514 -85.0404 -29.9186 82.8409 -15.8777 42.5808 14.224 68.0429 14.8375 -82.0071 -36.3495 23.1759 -72.3021 50.9176 -1.69754 -2.16246 -9.34092 -0.411034 1.6663 
